<svg viewBox="0 0 73.48 64.833" xmlns="http://www.w3.org/2000/svg" xmlns:xlink="http://www.w3.org/1999/xlink"><clipPath id="a"><path d="m0 64.833h73.48v-64.833h-73.48z" transform="matrix(1 0 0 -1 0 64.833)"/></clipPath><g clip-path="url(#a)" fill="#fff"><path d="m53.918 8.4c-.108.381-.942 2.473-1.524 2.688-.609.224-3.301-.078-3.933-.286-.621-.205-.697-.498-.139-.71 1.055-.399 3.702-1.436 4.909-2.01.559-.268.795-.063.687.318m16.892 16.303-7.524-14.662c-.146-.285-3.256-8.178-3.256-8.178-.248-.686-.971-1.346-1.76-.25-.764 1.057-1.07 3.175-2.91 3.961l-14.062 5.53c-.821.336-.893.76-.416 1.455l3.934 5.155c.315.378.936.794 1.746.85l4.344.233c.802.048 1.139.68 1.25 1.062l1.703 5.703c.413 1.416.196 2.546-1.23 3.856 0 0-.898.822-1.722 1.363-1.586 1.04-3.198.723-4.51-.046a70.352 70.352 0 0 1 -5.567-3.71c-2.146-1.598-4.78-1.7-7.737-.63l-8.774 3.278c-2.202.873-3.161 1.746-3.775 3.491l-1.792 4.773c-.44 1.164-.472 2.485-.063 3.522l3.842 8.836c.125.277.073.493-.327.363 0 0-1.258-.486-2.431-1.237-2.473-1.584-3.173-2.52-4.306-4.833-1.011-2.065-1.894-4.476-1.832-7.496.094-4.623 1.25-7.194 1.887-8.775.637-1.58 3.277-6.25 3.708-6.966.484-.806.382-2.03-1.321-1.368-4.555 1.772-10.52 4.078-11.77 4.927-.89.605-1.251 1.327-1.117 2.092 0 0 .837 3.998.711 5.052-.099.826-.424 1.006-.88 1.258 0 0-2.859 1.466-3.578 1.958-.483.33-.613.848-.212 1.407.295.411 2.689 2.602 3.562 4.702.276.665.087 1.062-.103 1.446-.189.385-1.551 3.056-1.551 3.056-.365.644-.192.894.404 1.16 0 0 3.042 1.483 5.825 2.545 3.597 1.373 6.246 2.5 9.932 3.873 3.876 1.445 6.868 2.295 6.868 2.295.508.072 1.09.427.368 1.06 0 0-.98.848-1.586 1.682-.605.833-.267 1.494.74 1.966.853.4 6.354 3.196 6.354 3.196a5.617 5.617 0 0 0 2.534.603l5.335.015c.652-.033.938-.37 1.675-1.786.313-.602.022-1.316-.52-1.533-.786-.314-3.983-1.034-4.749-1.21-.92-.213-.888-.7-.228-.818 0 0 4.224-.99 5.094-1.389 2.644-1.207 2.707-2.56 2.998-5.58.314-3.255-.26-4.368-1.392-6.16-.477-.756-2.309-2.77-2.309-2.77-.38-.548-.38-1.02.551-.96 1.519.097 5.815 2.888 6.381 7.606l.472 5.135c.173 1.415 1.034 2.757 1.946 3.984s2.964 4.175 2.964 4.175c.26.275.479.511 1.093.543l1.541.078c.613.023 1.037-.26 1.321-.542l.999-1.2a.62.62 0 0 0 -.193-.946l-1.054-.532c-.448-.27-.602-.53-.483-1.038 0 0 .539-2.195.955-3.627.417-1.43 2.06-2.42 2.957-3.113l7.626-5.913a6.686 6.686 0 0 0 2.453-3.868l2.406-12.454c.448-2.259-1.069-4.936-1.439-5.655"/><path d="m68.933 49.019 3.183 4.518c.254.495.306.873.047 1.368l-2.74 4.845c-.232.356-.48.296-.762.084l-1.345-.966c-.336-.248-.377-.614-.334-.96l.305-2.177c.024-.188.025-.315-.23-.466l-3.143-2.044c-.314-.205-.334-.54-.023-.787l4.262-3.498c.305-.255.574-.236.78.083"/></g></svg>
